<?xml version="1.0" standalone="no"?>
<!DOCTYPE svg PUBLIC "-//W3C//DTD SVG 20010904//EN"
 "http://www.w3.org/TR/2001/REC-SVG-20010904/DTD/svg10.dtd">
<svg version="1.0" xmlns="http://www.w3.org/2000/svg"
 width="832.000000pt" height="832.000000pt" viewBox="0 0 832.000000 832.000000"
 preserveAspectRatio="xMidYMid meet">
<metadata>
Created by potrace 1.14, written by Peter Selinger 2001-2017
</metadata>
<g transform="translate(0.000000,832.000000) scale(0.100000,-0.100000)"
fill="#000000" stroke="none">
<path d="M3314 7741 c-3 -3 -31 -6 -62 -6 -31 0 -63 -4 -69 -8 -7 -5 -13 -4
-13 0 0 5 -25 6 -56 3 -30 -3 -57 -3 -60 2 -3 4 -13 4 -22 -1 -9 -4 -32 -7
-50 -5 -22 2 -30 -1 -25 -9 5 -8 2 -8 -9 0 -8 7 -17 10 -20 7 -11 -10 -73 -11
-92 -2 -13 7 -16 7 -12 -1 5 -7 -1 -10 -16 -7 -13 2 -31 -1 -40 -6 -12 -6 -18
-5 -18 3 0 8 -4 8 -12 2 -7 -5 -35 -9 -63 -8 -27 1 -56 -3 -62 -8 -9 -6 -13
-5 -13 2 0 7 -5 9 -12 4 -14 -8 -27 -10 -135 -15 -40 -1 -73 -7 -73 -11 0 -4
-8 -3 -19 2 -10 6 -22 7 -25 3 -4 -4 -19 -8 -34 -9 -126 -8 -188 -17 -194 -26
-6 -9 -8 -9 -8 -1 0 8 -11 9 -34 4 -19 -4 -37 -6 -40 -3 -2 3 -14 0 -25 -7
-13 -7 -21 -7 -21 -1 0 7 -8 7 -24 1 -13 -5 -27 -6 -31 -2 -3 3 -10 0 -15 -8
-9 -13 -10 -13 -10 0 0 9 -6 6 -16 -9 -19 -27 -25 -97 -11 -125 6 -12 6 -16
-1 -12 -6 4 -9 -10 -8 -34 0 -22 5 -40 9 -40 4 0 4 -7 -1 -15 -4 -9 -5 -40 -2
-70 3 -31 2 -55 -3 -55 -5 0 -5 -6 2 -13 8 -10 7 -17 -2 -27 -6 -7 -7 -10 -2
-7 7 3 10 -91 10 -274 0 -153 3 -279 7 -279 4 0 4 -11 -1 -23 -5 -13 -5 -30
-1 -37 5 -9 4 -20 -2 -27 -8 -10 -7 -13 3 -13 11 0 11 -2 -1 -10 -8 -5 -10
-10 -5 -10 6 0 10 -22 11 -50 0 -32 -3 -47 -10 -43 -8 5 -8 3 0 -8 7 -9 12
-100 14 -254 4 -421 5 -440 12 -451 4 -6 4 -14 1 -18 -10 -10 -11 -96 -2 -90
4 2 4 -9 -1 -26 -5 -17 -5 -32 0 -35 5 -3 6 -15 0 -29 -4 -12 -5 -28 -1 -34 4
-7 6 -27 4 -44 -2 -18 -4 -37 -3 -43 0 -5 1 -82 3 -170 2 -88 6 -169 10 -180
7 -22 8 -22 107 -27 36 -2 71 -7 78 -11 7 -5 12 -4 12 3 0 6 5 8 13 3 6 -4 39
-8 72 -9 33 -1 96 -5 140 -8 44 -4 98 -8 120 -9 22 -1 45 -6 52 -10 6 -4 14
-4 17 1 3 4 29 6 58 3 29 -3 81 -6 115 -6 33 0 59 -3 57 -7 -8 -13 11 -9 24 4
7 7 12 8 12 2 0 -5 42 -9 98 -9 53 0 103 -4 110 -8 8 -6 12 -5 12 3 0 9 4 9
13 2 6 -5 29 -8 50 -6 28 3 37 1 31 -7 -5 -8 -3 -9 6 -4 14 9 100 13 105 5 2
-3 42 -3 89 0 47 3 86 3 86 0 0 -3 9 -6 20 -7 11 -1 20 3 20 9 0 7 4 7 13 0 6
-6 27 -9 45 -8 17 1 32 -3 32 -8 0 -8 3 -7 8 0 4 7 27 9 65 4 31 -3 57 -4 57
-1 0 4 40 5 90 3 85 -3 100 -8 83 -26 -5 -4 -9 -31 -9 -61 -1 -29 -4 -58 -8
-64 -4 -6 -4 -11 1 -11 13 0 8 -101 -6 -109 -12 -8 -81 -4 -90 4 -2 3 -10 0
-18 -6 -9 -8 -13 -8 -13 0 0 7 -8 8 -25 1 -14 -5 -25 -6 -25 -2 0 4 -46 7
-103 7 -56 0 -119 3 -139 6 -21 4 -38 2 -38 -3 0 -5 -5 -6 -11 -3 -17 11 -59
13 -59 3 0 -5 -4 -6 -10 -3 -16 10 -25 -73 -9 -92 1 -2 2 -6 3 -10 1 -5 5 -14
9 -20 5 -7 6 -13 3 -13 -3 0 2 -16 10 -35 8 -20 12 -41 8 -47 -4 -6 -3 -8 3
-5 6 4 14 0 17 -9 3 -8 2 -12 -4 -9 -6 3 -10 2 -10 -4 0 -5 5 -11 11 -13 5 -2
11 -10 12 -18 2 -8 7 -21 11 -29 6 -10 5 -12 -2 -7 -8 5 -10 2 -6 -8 3 -9 10
-16 15 -16 5 0 9 -11 9 -25 0 -15 7 -39 15 -55 9 -17 15 -32 15 -35 1 -20 14
-66 21 -71 4 -2 6 -11 2 -19 -3 -8 -1 -15 4 -15 5 0 10 -6 11 -12 0 -7 3 -24
7 -38 4 -14 7 -31 7 -37 1 -7 5 -13 10 -13 4 0 8 -9 8 -19 0 -11 5 -23 10 -26
6 -4 8 -11 4 -16 -3 -5 -1 -15 4 -22 5 -7 8 -22 7 -35 -1 -12 4 -27 12 -33 7
-6 10 -15 7 -20 -3 -5 -1 -9 3 -9 5 0 10 -12 11 -26 1 -15 7 -33 13 -40 6 -8
9 -21 5 -29 -3 -9 -2 -13 4 -10 9 5 15 -23 11 -47 0 -5 3 -8 8 -8 5 0 8 -8 7
-17 -2 -10 1 -20 5 -23 5 -3 10 -15 12 -27 1 -12 9 -28 16 -37 10 -12 11 -16
1 -16 -9 0 -10 -3 -1 -13 6 -8 8 -17 4 -20 -3 -4 -1 -7 6 -7 8 0 11 -7 7 -15
-3 -8 -1 -15 5 -15 6 0 9 -7 5 -15 -3 -8 1 -20 8 -27 7 -7 11 -20 8 -30 -2
-10 0 -18 5 -18 5 0 10 -6 11 -12 5 -39 9 -55 20 -75 7 -13 10 -23 7 -23 -3 0
1 -13 10 -30 9 -16 13 -30 11 -30 -3 0 2 -16 10 -35 8 -19 11 -35 8 -35 -4 0
-1 -6 5 -14 6 -8 13 -27 14 -44 1 -16 5 -28 10 -25 7 4 11 -12 8 -31 -1 -4 3
-13 8 -20 5 -6 11 -25 13 -41 2 -17 9 -36 16 -43 7 -8 10 -18 6 -23 -3 -6 0
-16 6 -24 6 -8 9 -19 5 -25 -3 -5 -1 -10 5 -10 7 0 10 -6 7 -14 -3 -8 -1 -16
5 -18 24 -8 11 -198 -14 -198 -4 0 -5 -7 -2 -15 3 -8 2 -20 -2 -27 -5 -7 -9
-16 -10 -20 -1 -5 -2 -9 -4 -10 -2 -3 -8 -27 -13 -54 -2 -8 -9 -19 -16 -24
-10 -5 -10 -9 -2 -15 7 -4 8 -12 3 -18 -15 -21 -32 -68 -23 -63 5 4 1 -12 -10
-33 -10 -22 -16 -47 -12 -57 4 -12 3 -15 -6 -10 -8 5 -11 3 -10 -5 1 -8 0 -21
-4 -29 -17 -47 -26 -83 -21 -91 3 -5 1 -9 -5 -9 -5 0 -12 -18 -16 -40 -4 -22
-10 -40 -14 -40 -4 0 -8 -12 -9 -26 -1 -14 -5 -31 -9 -37 -8 -13 -13 -31 -16
-64 -1 -13 -5 -23 -9 -23 -5 0 -8 -12 -8 -26 0 -16 -4 -23 -11 -18 -8 4 -9 0
-4 -15 3 -11 2 -21 -3 -21 -6 0 -8 -10 -4 -22 3 -14 1 -19 -6 -14 -7 4 -10 -1
-7 -14 2 -11 0 -22 -4 -25 -5 -2 -12 -22 -16 -42 -4 -21 -10 -42 -13 -48 -6
-10 -7 -13 -16 -50 -2 -11 -5 -20 -6 -20 -1 0 -3 -11 -6 -24 -2 -14 -9 -30
-15 -37 -6 -7 -8 -18 -5 -23 4 -5 1 -13 -5 -16 -5 -4 -8 -13 -5 -20 3 -8 1
-15 -4 -17 -5 -2 -10 -14 -12 -28 -2 -14 -7 -30 -10 -36 -4 -6 -10 -24 -13
-40 -8 -39 -10 -44 -25 -79 -7 -16 -12 -38 -11 -49 2 -10 -1 -16 -6 -13 -4 3
-9 -5 -10 -16 -2 -24 -10 -62 -13 -62 -1 0 -3 -9 -5 -20 -2 -11 -9 -21 -14
-23 -6 -2 -8 -14 -5 -29 4 -14 2 -28 -4 -32 -6 -4 -14 -18 -16 -31 -2 -14 -5
-26 -7 -27 -1 -2 -3 -7 -4 -13 -1 -5 -3 -11 -5 -12 -1 -2 -3 -11 -5 -21 -2
-10 -7 -26 -11 -35 -7 -18 -8 -21 -20 -62 -22 -82 -4 -132 41 -110 6 3 31 5
57 5 27 0 48 3 48 7 0 4 12 6 28 4 15 -1 33 2 41 8 12 9 13 8 6 -4 -8 -13 -6
-13 8 -2 9 8 21 11 27 7 5 -3 10 -2 10 2 0 5 17 8 38 7 20 0 42 2 47 5 6 3 24
6 40 7 81 5 151 17 157 28 5 7 8 6 8 -4 0 -9 3 -11 8 -5 4 6 26 10 49 10 24 0
43 3 43 6 0 4 14 5 30 4 17 -1 30 0 30 4 0 5 31 9 103 12 9 0 17 6 17 12 0 7
4 6 10 -3 5 -8 10 -10 10 -5 0 6 18 10 40 9 22 0 40 2 40 5 0 4 9 7 20 7 11 0
20 -5 20 -11 0 -5 4 -4 8 2 4 7 32 15 62 17 30 3 55 6 55 7 0 1 12 3 28 5 46
5 81 12 97 18 21 9 23 46 5 96 -8 23 -13 46 -10 50 3 4 -2 13 -11 20 -8 7 -13
19 -10 27 3 7 1 13 -4 13 -6 0 -10 8 -10 18 0 10 -11 51 -25 91 -13 41 -22 77
-19 82 3 5 0 9 -5 9 -6 0 -11 8 -11 18 0 10 -3 22 -7 26 -8 8 -14 34 -14 59 0
9 -4 17 -10 17 -5 0 -9 12 -9 26 0 16 -4 23 -11 18 -8 -4 -9 0 -4 15 3 11 2
21 -3 21 -5 0 -8 11 -7 25 2 14 -1 23 -6 19 -5 -3 -9 4 -9 15 0 11 -5 32 -12
48 -6 15 -10 32 -9 37 1 4 -3 13 -8 20 -5 6 -12 24 -15 39 -2 15 -7 31 -11 37
-5 9 -8 19 -18 65 -2 6 -6 15 -9 21 -4 6 -9 21 -12 35 -3 13 -13 44 -22 69
-17 48 -25 77 -26 98 -1 6 -6 12 -11 12 -6 0 -8 3 -4 6 3 4 0 19 -8 35 -18 34
-19 42 -2 34 6 -4 5 -1 -4 7 -9 7 -15 23 -14 35 1 12 -2 20 -7 17 -4 -3 -8 4
-8 16 0 12 -6 33 -14 48 -7 15 -12 35 -11 45 2 9 -1 17 -6 17 -5 0 -9 7 -9 15
0 8 -4 23 -9 33 -13 24 -36 104 -34 120 0 6 -3 12 -8 12 -5 0 -8 3 -7 7 1 5
-9 42 -22 83 -13 41 -24 78 -24 82 -1 3 -4 10 -8 14 -5 4 -8 18 -8 31 0 12 -4
23 -8 23 -5 0 -8 10 -6 23 1 12 3 22 4 22 1 0 6 17 13 47 1 7 6 19 11 26 4 7
5 16 2 19 -3 3 1 15 9 25 7 11 11 27 8 34 -3 9 2 14 13 14 14 0 16 2 6 9 -15
9 -14 14 4 50 7 14 11 28 8 33 -3 4 0 8 7 8 7 0 10 3 6 6 -3 3 1 24 9 46 7 22
11 44 8 49 -3 5 0 9 5 9 6 0 11 8 11 18 0 9 7 29 14 45 8 15 10 27 5 27 -5 0
-3 10 5 23 7 12 17 36 21 52 12 43 12 45 15 48 1 1 3 9 5 17 2 8 11 40 20 70
9 30 18 62 20 70 2 8 4 16 5 18 2 1 4 7 5 12 1 6 4 13 5 18 1 4 2 10 1 15 0 4
3 7 9 7 5 0 7 7 4 15 -4 8 -1 15 7 15 7 0 10 3 7 6 -3 3 3 33 14 67 10 34 21
71 24 82 3 11 6 25 8 30 2 6 6 24 11 40 4 17 12 35 17 42 5 7 7 17 4 22 -4 5
-1 13 5 16 5 4 8 13 5 21 -3 8 -1 14 4 14 6 0 10 10 10 23 0 13 3 27 7 31 4 3
8 12 9 19 8 39 14 57 27 89 9 20 13 39 10 42 -3 3 -1 11 4 18 9 11 25 65 27
90 1 3 4 10 9 14 4 4 7 17 7 29 0 11 5 26 12 33 7 7 9 12 5 12 -4 0 -3 10 4
21 6 12 13 36 16 53 3 17 8 33 11 36 4 3 8 10 9 16 1 6 4 23 7 37 2 14 8 34
13 44 5 10 8 25 7 33 -1 8 -2 20 -3 27 -1 11 -61 37 -61 26 0 -3 -8 1 -17 8
-9 8 -14 9 -10 3 7 -12 -81 -13 -100 -1 -6 4 -13 3 -17 0 -11 -11 -36 -12 -36
-2 0 6 -8 5 -20 -1 -11 -6 -20 -7 -20 -3 0 4 -33 8 -73 8 -39 -1 -76 1 -81 3
-4 3 -42 5 -84 6 l-76 1 -2 85 c-2 56 1 87 9 92 8 5 5 8 -8 8 -13 0 -16 3 -8
8 15 9 2 67 -14 67 -6 0 -14 3 -17 6 -3 3 174 5 394 5 258 -1 402 3 405 9 3 6
7 5 11 -3 3 -6 10 -9 15 -6 6 3 72 8 147 10 75 2 147 6 160 9 13 3 22 1 22 -6
0 -7 5 -8 13 -3 15 11 38 11 55 1 6 -5 12 -4 12 1 0 5 32 8 70 7 45 -1 70 2
70 9 0 6 5 4 10 -4 5 -8 10 -10 10 -5 0 6 13 10 30 11 19 1 27 -3 23 -10 -5
-8 -3 -8 8 0 8 5 47 10 86 10 40 -1 73 3 73 7 0 4 10 3 21 -4 17 -9 20 -8 13
3 -6 11 -5 11 9 -1 9 -7 17 -9 17 -4 0 5 39 10 86 11 48 1 92 6 99 12 6 5 14
7 18 4 3 -3 10 4 17 15 6 12 7 21 3 21 -4 0 -1 5 7 10 8 5 10 10 4 10 -11 0
-10 52 1 71 4 5 2 9 -4 9 -10 0 -10 18 2 37 4 6 3 15 -3 18 -8 5 -7 11 1 21 6
8 7 14 2 14 -5 0 -9 9 -9 20 0 11 4 20 9 20 5 0 4 7 -3 15 -10 12 -10 15 0 15
9 0 10 3 1 13 -6 8 -8 17 -4 20 10 10 10 57 0 57 -4 0 -3 8 2 18 5 10 6 24 1
32 -4 7 -4 23 0 35 5 14 4 27 -3 34 -7 7 -7 11 0 11 11 0 10 41 -2 59 -3 6 -2
11 3 11 10 0 9 30 -2 48 -4 6 -3 12 1 12 10 0 10 41 -1 58 -4 7 -4 12 1 12 4
0 8 79 8 175 0 96 4 175 8 175 5 0 5 5 1 12 -9 14 -11 68 -3 68 3 0 3 23 -1
50 -4 28 -4 50 -1 50 8 0 5 65 -3 78 -3 6 0 13 6 15 10 4 10 6 0 6 -7 1 -10 6
-6 12 11 18 10 139 -1 139 -7 0 -7 3 0 8 6 4 10 104 10 265 0 141 3 257 8 257
4 0 5 6 0 13 -10 15 -11 137 0 130 4 -2 7 1 7 6 0 6 -4 11 -9 11 -10 0 -9 19
2 38 5 7 3 12 -4 12 -8 0 -8 4 -1 13 15 18 15 29 2 37 -8 5 -9 13 -4 21 11 18
11 38 2 67 -4 13 -5 21 0 19 4 -3 7 41 7 96 0 97 -1 103 -25 119 -14 10 -42
18 -62 18 -20 0 -40 5 -43 10 -5 8 -11 8 -19 1 -7 -6 -15 -8 -19 -5 -5 5 -62
11 -159 17 -15 1 -30 6 -34 10 -4 4 -13 2 -21 -4 -7 -6 -13 -8 -13 -3 0 5 -19
9 -42 9 -24 0 -49 4 -55 9 -8 5 -13 4 -13 -2 0 -7 -10 -8 -28 -3 -15 5 -39 7
-55 5 -15 -1 -27 0 -27 4 0 4 -28 8 -63 9 -165 5 -217 9 -217 17 0 5 -7 3 -15
-4 -8 -7 -15 -9 -15 -4 0 5 -11 9 -25 9 -14 0 -25 -4 -25 -8 0 -4 -8 -4 -17 1
-17 8 -97 13 -280 16 -46 0 -83 4 -83 8 0 8 -34 3 -50 -7 -6 -3 -10 -3 -10 2
0 4 -216 8 -480 8 -264 0 -480 -4 -480 -8 0 -5 -5 -5 -11 -2 -13 8 -78 12 -85
6z m681 -72 c167 -2 265 -6 274 -13 11 -8 13 -8 8 0 -7 12 48 13 60 1 3 -4 12
-2 19 4 8 7 14 7 19 -1 4 -7 12 -7 24 0 10 5 21 6 25 3 4 -4 46 -7 94 -8 48 0
93 -4 100 -8 7 -5 12 -3 12 4 0 8 4 8 15 -1 12 -10 15 -10 15 1 0 9 3 10 8 4
4 -6 47 -10 97 -10 50 1 96 -3 103 -8 8 -6 12 -5 12 4 0 9 3 10 8 3 4 -6 25
-10 47 -10 22 1 46 -3 53 -8 8 -5 12 -4 12 4 0 10 3 10 15 0 10 -8 15 -9 15
-2 0 6 6 9 13 7 32 -11 130 -20 287 -27 8 0 21 -5 28 -11 7 -6 12 -6 12 0 0 5
7 10 15 10 8 0 15 -3 15 -7 0 -3 25 -6 55 -5 30 0 55 -2 55 -5 0 -3 17 -6 38
-6 62 -3 144 -12 149 -18 8 -8 7 -181 -1 -194 -4 -7 -2 -12 4 -12 7 0 8 -6 1
-19 -6 -10 -8 -21 -5 -24 8 -7 8 -177 0 -184 -3 -3 -1 -12 5 -20 8 -8 8 -13 1
-13 -11 0 -10 -25 1 -36 4 -4 2 -13 -4 -20 -7 -8 -7 -14 1 -19 6 -3 7 -12 3
-18 -12 -19 -12 -37 -2 -37 6 0 7 -5 3 -11 -3 -6 -7 -70 -8 -143 -1 -72 -6
-137 -10 -145 -6 -9 -5 -12 0 -8 11 6 11 -124 0 -141 -3 -6 0 -13 6 -16 9 -4
9 -8 2 -11 -6 -4 -8 -24 -4 -55 4 -28 4 -50 1 -50 -3 0 -5 -73 -5 -162 1 -108
-2 -168 -10 -177 -8 -11 -8 -13 1 -7 10 5 12 -10 11 -63 -1 -42 -6 -68 -11
-64 -6 4 -7 1 -1 -8 12 -20 13 -240 1 -232 -6 4 -7 1 -1 -8 11 -19 13 -91 2
-106 -5 -6 -5 -14 2 -18 7 -4 7 -12 0 -25 -6 -10 -6 -21 -2 -24 10 -6 9 -36
-1 -53 -4 -6 -3 -15 3 -18 8 -5 7 -11 -1 -21 -6 -8 -7 -14 -2 -14 11 0 11 -29
0 -47 -4 -6 -3 -14 3 -18 7 -4 6 -13 -1 -27 -9 -16 -8 -23 2 -29 9 -5 10 -9 3
-9 -14 0 -13 -32 1 -42 6 -5 6 -8 -1 -8 -12 0 -13 -38 -1 -57 5 -7 4 -13 -1
-13 -5 0 -8 -10 -8 -22 1 -17 -6 -23 -32 -29 -18 -3 -35 -2 -38 3 -4 5 -10 5
-18 -1 -6 -5 -25 -10 -41 -9 -17 0 -34 -1 -40 -2 -5 -1 -13 -1 -17 0 -16 4
-75 3 -84 -1 -5 -3 -37 -5 -71 -5 -35 1 -63 -2 -63 -5 0 -4 -16 -3 -34 1 -19
4 -38 5 -41 2 -3 -3 -50 -6 -104 -7 -54 -1 -103 -5 -109 -9 -7 -4 -12 -3 -12
3 0 6 -11 7 -27 2 -16 -4 -137 -7 -270 -6 -134 0 -243 -2 -243 -5 0 -8 -65 -4
-78 4 -7 4 -12 3 -12 -1 0 -10 -41 -10 -58 1 -7 4 -12 4 -12 -1 0 -4 -18 -8
-40 -9 -25 0 -37 3 -33 10 5 8 3 8 -8 1 -15 -11 -214 -13 -225 -2 -3 3 -17 2
-30 -3 -17 -7 -24 -6 -25 3 0 9 -2 9 -6 -1 -4 -10 -8 -10 -19 -1 -9 7 -14 8
-14 1 0 -7 -10 -8 -30 -2 -17 5 -30 5 -30 0 0 -5 -6 -7 -12 -5 -31 11 -88 12
-88 1 0 -7 -3 -7 -8 -1 -4 6 -70 10 -162 10 -92 -1 -161 3 -169 10 -11 7 -13
7 -8 -2 5 -8 0 -11 -13 -10 -11 1 -20 5 -20 10 0 4 -6 5 -12 1 -15 -10 -48
-13 -48 -5 0 3 -82 7 -181 8 -110 2 -187 7 -194 13 -9 7 -15 8 -19 1 -5 -7
-15 -7 -31 -1 -17 6 -25 6 -25 -1 0 -6 -5 -7 -11 -3 -6 3 -43 7 -82 8 -40 1
-78 5 -84 9 -7 5 -13 4 -13 -2 0 -6 -6 -8 -12 -6 -7 3 -45 6 -83 8 -39 2 -76
6 -82 10 -6 4 -14 3 -18 -2 -4 -7 -15 -7 -32 0 -19 7 -28 6 -33 -2 -5 -7 -10
-7 -14 -1 -5 8 -82 15 -148 14 -10 -1 -20 3 -23 8 -3 6 -15 6 -29 0 -13 -5
-27 -6 -30 -3 -3 3 -33 7 -67 8 -33 1 -64 7 -68 13 -3 5 -6 69 -6 141 0 72 -4
131 -8 131 -4 0 -3 9 3 20 8 15 8 20 -2 20 -9 0 -9 3 2 10 8 5 11 10 5 10 -5
0 -10 18 -11 40 0 22 4 40 9 40 4 0 5 5 1 12 -4 7 -9 123 -9 259 -1 135 -5
252 -9 258 -4 6 -3 11 1 11 5 0 6 24 3 54 -3 30 -2 64 2 76 5 13 4 19 -2 15
-11 -7 -9 23 3 42 4 6 4 14 -1 17 -4 2 -7 93 -7 200 0 108 -3 196 -7 196 -4 0
-4 10 1 23 5 12 5 31 1 42 -4 11 -4 34 1 52 4 22 3 33 -5 34 -7 0 -7 2 2 6 6
2 9 10 5 15 -11 20 -11 128 1 128 7 0 7 3 1 8 -11 8 -12 25 -15 318 -2 106 0
196 4 202 3 6 0 13 -6 16 -22 9 23 29 67 30 22 0 43 5 47 11 5 6 8 5 8 -3 0
-9 5 -10 19 -3 10 6 21 8 24 4 4 -3 13 -1 21 6 11 9 15 9 18 -1 4 -10 8 -11
20 -1 8 7 18 10 22 6 4 -4 11 -1 16 7 6 10 10 11 10 3 0 -7 6 -10 12 -8 7 2
41 6 75 9 34 2 67 7 74 12 8 5 9 3 4 -5 -5 -10 -3 -11 11 -4 11 6 34 9 52 8
17 0 32 4 32 10 0 5 4 4 9 -4 5 -8 11 -9 14 -3 4 5 29 8 57 7 27 -1 55 2 62 6
6 4 21 3 31 -3 14 -7 17 -7 13 1 -5 8 14 11 61 12 117 1 158 4 171 12 7 5 12
3 12 -3 0 -6 5 -8 12 -4 13 8 155 15 340 18 58 0 98 5 98 11 0 6 5 3 10 -5 8
-12 10 -12 10 -1 0 10 3 11 14 2 9 -7 17 -8 20 -2 7 10 24 10 43 -2 6 -4 15
-2 19 4 4 8 9 7 15 -2 5 -8 9 -9 9 -3 0 13 78 12 100 -1 9 -5 11 -4 6 3 -5 9
8 11 48 10 30 -1 58 1 62 5 4 3 10 5 13 3 4 -3 123 -6 266 -7z m-595 -3039 c0
6 4 9 8 6 5 -3 39 -6 76 -8 37 -1 70 -6 73 -11 3 -5 9 -3 14 4 6 10 11 11 20
2 7 -7 21 -8 40 -3 19 6 29 5 29 -2 0 -6 6 -6 15 2 10 9 15 9 15 1 0 -13 22
-10 32 4 5 7 8 6 8 -1 0 -6 17 -9 40 -8 22 1 40 -2 40 -8 0 -5 5 -6 11 -2 8 4
8 1 2 -12 -10 -20 -9 -93 0 -119 4 -8 2 -15 -2 -15 -5 0 -5 -15 -1 -34 4 -19
4 -40 -1 -47 -4 -7 -5 -17 -2 -22 7 -12 8 -135 1 -143 -4 -3 -3 -18 2 -34 5
-18 4 -32 -3 -39 -6 -6 -7 -11 -1 -11 5 0 9 -39 9 -89 0 -57 -4 -87 -10 -83
-5 3 -5 -1 2 -9 13 -16 12 -36 -1 -58 -6 -9 -5 -12 1 -8 6 4 10 -40 10 -117 0
-68 3 -129 7 -135 4 -6 1 -11 -6 -11 -9 0 -9 -3 2 -10 11 -7 11 -10 2 -10 -7
0 -10 -5 -6 -12 10 -16 11 -477 1 -491 -6 -8 -7 -7 -4 4 3 9 0 22 -6 28 -6 6
-8 11 -4 11 4 0 0 16 -8 36 -8 20 -15 45 -15 55 0 11 -5 19 -11 19 -5 0 -8 4
-4 9 3 5 -3 31 -14 58 -10 26 -19 51 -20 55 -2 11 -11 38 -23 70 -5 15 -7 32
-3 37 3 6 2 11 -4 11 -9 0 -27 56 -23 73 1 4 -2 7 -7 7 -5 0 -11 14 -15 30 -3
17 -9 44 -12 60 -4 17 -10 30 -13 30 -4 0 -8 6 -9 13 -5 39 -9 54 -17 67 -5 8
-10 21 -11 30 -1 8 -9 37 -18 63 -10 27 -18 57 -19 68 -1 10 -5 19 -10 19 -5
0 -7 7 -3 15 3 8 2 15 -3 15 -8 0 -24 55 -25 85 -1 6 -4 12 -8 15 -4 3 -9 17
-10 30 -2 14 -6 27 -10 30 -4 3 -9 18 -12 34 -3 16 -14 46 -24 67 -11 21 -15
36 -11 33 12 -7 11 -2 -6 33 -8 16 -17 40 -19 54 -2 13 -5 26 -6 29 -2 3 -2 8
-1 13 0 4 -3 7 -8 7 -5 0 -8 11 -7 25 2 15 -1 22 -7 18 -6 -4 -8 0 -4 9 3 9 1
20 -4 25 -9 9 -20 44 -21 71 -1 6 -5 12 -10 12 -5 0 -7 4 -4 8 2 4 1 14 -4 22
-14 22 8 42 31 29 13 -7 19 -6 19 1z m570 -18 c0 8 3 9 8 3 4 -5 35 -10 69
-10 36 1 59 -3 56 -9 -4 -5 -1 -6 8 0 17 11 57 12 86 2 12 -4 25 -3 28 2 6 9
37 6 55 -5 6 -3 10 -1 10 5 0 6 5 8 13 3 6 -4 30 -8 52 -8 39 -1 40 -1 37 -35
-1 -19 -7 -39 -12 -44 -4 -4 -6 -15 -3 -22 3 -8 1 -14 -5 -14 -6 0 -9 -8 -7
-17 1 -10 -2 -23 -7 -30 -5 -6 -11 -22 -13 -35 -6 -40 -17 -68 -27 -68 -5 0
-7 -4 -4 -9 6 -8 -23 -122 -33 -131 -3 -3 -7 -10 -8 -16 -1 -6 -4 -23 -7 -37
-2 -14 -9 -35 -16 -46 -6 -12 -7 -21 -3 -21 4 0 1 -5 -7 -10 -11 -7 -11 -10
-2 -10 7 0 10 -5 7 -10 -4 -6 -9 -8 -13 -6 -4 2 -8 -6 -8 -17 -1 -12 -5 -33
-9 -47 -3 -14 -7 -31 -7 -37 -1 -7 -5 -13 -10 -13 -5 0 -6 -4 -3 -10 3 -5 0
-10 -7 -11 -9 0 -10 -2 -1 -5 7 -3 9 -12 6 -20 -3 -7 -10 -11 -16 -7 -7 4 -8
0 -4 -12 4 -9 2 -24 -4 -31 -6 -8 -8 -14 -4 -14 4 0 3 -6 -3 -12 -11 -14 -12
-17 -12 -49 0 -11 -4 -18 -9 -14 -6 3 -8 -3 -6 -14 2 -10 -2 -29 -9 -43 -7
-13 -12 -32 -10 -41 1 -9 -1 -17 -5 -17 -8 0 -38 -109 -33 -122 1 -5 -3 -8 -9
-8 -6 0 -9 -6 -6 -14 3 -8 0 -17 -7 -19 -8 -3 -12 -17 -11 -31 2 -14 0 -26 -4
-26 -4 0 -8 -6 -9 -12 0 -7 -3 -24 -7 -38 -4 -14 -7 -32 -8 -40 -1 -8 -6 -18
-11 -22 -5 -3 -11 -21 -13 -39 -2 -18 -8 -36 -15 -40 -6 -4 -8 -14 -5 -23 4
-10 1 -19 -6 -22 -7 -2 -12 -18 -11 -34 1 -17 -2 -30 -7 -30 -5 0 -9 -11 -9
-24 0 -14 -5 -28 -10 -31 -6 -4 -10 -3 -9 2 1 4 0 11 -1 16 -6 19 -5 33 5 39
7 5 7 8 0 8 -12 0 -14 139 -2 157 4 6 3 14 -2 17 -4 3 -9 28 -10 56 0 28 -3
56 -6 61 -4 5 -1 9 5 9 6 0 9 4 5 9 -3 5 -6 171 -8 369 -1 212 -6 358 -11 354
-5 -3 -6 1 -1 7 9 15 13 101 5 101 -3 0 -6 9 -6 20 0 11 4 20 7 20 4 0 4 13
-1 29 -5 19 -4 33 3 40 6 6 7 11 2 11 -6 0 -10 44 -10 100 0 61 4 100 10 100
5 0 4 4 -3 9 -8 4 -14 12 -13 17 0 14 44 22 64 12 12 -6 17 -5 17 4z m-40
-2108 c-1 -4 3 -10 8 -13 6 -4 13 -18 15 -31 2 -14 9 -36 14 -50 6 -14 9 -28
6 -32 -2 -5 1 -8 6 -8 6 0 11 -5 11 -11 0 -5 -6 -7 -12 -4 -7 4 -5 0 4 -8 10
-8 15 -17 12 -20 -3 -3 2 -17 11 -31 14 -20 14 -26 4 -26 -10 0 -11 -3 -3 -8
9 -5 33 -69 38 -102 1 -3 6 -18 13 -35 26 -69 30 -82 35 -122 1 -7 5 -13 10
-13 5 0 7 -4 4 -8 -3 -5 2 -21 10 -36 7 -16 14 -37 14 -47 0 -11 4 -27 9 -37
11 -23 32 -83 36 -102 1 -8 5 -23 9 -32 4 -9 9 -23 10 -32 1 -8 5 -19 9 -22 4
-4 7 -18 7 -30 0 -13 5 -26 11 -30 6 -3 9 -17 6 -30 -2 -13 -1 -21 3 -19 10 6
22 -24 14 -36 -3 -5 0 -9 6 -9 7 0 10 -6 7 -12 -2 -7 4 -30 15 -52 11 -21 14
-35 8 -31 -7 4 -4 -4 5 -18 9 -15 14 -30 11 -36 -3 -5 -2 -11 4 -13 5 -1 11
-15 12 -30 1 -16 5 -28 9 -28 6 0 18 -48 20 -77 1 -5 6 -17 12 -28 12 -22 17
-38 20 -72 1 -12 7 -21 12 -20 6 1 9 -6 7 -16 -2 -10 1 -24 7 -31 16 -19 21
-64 8 -69 -7 -2 -27 -3 -44 -2 -18 0 -33 -2 -33 -7 0 -4 -9 -5 -20 -3 -11 2
-22 -1 -26 -7 -4 -6 -10 -5 -15 3 -7 11 -9 11 -9 1 0 -7 -4 -10 -10 -7 -5 3
-19 1 -30 -5 -13 -7 -20 -7 -20 -1 0 7 -8 7 -24 1 -13 -5 -27 -6 -30 -3 -3 4
-6 0 -6 -8 0 -11 -2 -11 -10 1 -5 8 -10 11 -10 5 0 -9 -16 -12 -115 -18 -22
-1 -43 -6 -47 -12 -10 -13 -10 -13 -12 137 -1 70 -5 130 -9 134 -3 4 -1 16 5
27 7 15 8 22 0 25 -7 2 -7 13 -2 33 5 16 5 29 1 29 -9 0 -8 31 3 48 4 6 4 12
-1 12 -4 0 -8 152 -8 338 0 185 -3 352 -6 370 -5 21 -3 32 5 32 6 0 4 5 -4 10
-9 6 -10 10 -3 10 8 0 9 9 3 30 -6 21 -5 30 3 30 8 0 8 3 -1 12 -7 7 -8 17 -1
30 5 10 6 18 2 18 -4 0 -8 64 -9 142 0 78 1 137 4 130 2 -6 3 -14 2 -18z m-82
-189 c1 -111 -2 -144 -11 -138 -9 5 -9 3 0 -8 15 -18 22 -299 8 -300 -5 0 -4
-3 3 -6 10 -4 10 -8 1 -19 -6 -8 -8 -14 -3 -14 5 0 9 -71 9 -158 0 -86 3 -162
8 -169 4 -6 4 -14 -2 -17 -6 -4 -7 -15 -1 -30 4 -12 4 -29 0 -36 -5 -8 -5 -21
-1 -29 5 -8 5 -27 0 -43 -5 -17 -4 -26 2 -23 11 8 11 3 -1 -29 -6 -17 -6 -26
0 -26 12 0 9 -22 -5 -32 -7 -5 -7 -8 0 -8 6 0 10 -13 11 -30 1 -17 -3 -27 -9
-23 -6 4 -7 1 -3 -6 11 -18 14 -113 4 -133 -4 -10 -4 -19 1 -23 8 -4 8 -53 2
-95 -1 -7 -32 -12 -83 -14 -20 0 -34 -4 -32 -7 2 -4 -11 -7 -29 -7 -33 -1
-102 -9 -102 -12 0 -1 -15 -3 -32 -5 -22 -2 -31 1 -26 9 4 6 -1 4 -11 -3 -10
-8 -36 -16 -57 -18 -57 -5 -72 -8 -86 -16 -6 -4 -15 -2 -19 4 -4 8 -9 7 -15
-2 -8 -12 -11 -12 -18 1 -5 8 -7 19 -3 25 3 5 7 15 8 20 1 6 9 28 17 50 8 22
12 46 10 53 -3 6 1 12 7 12 7 0 10 7 6 15 -3 8 -1 15 5 15 6 0 7 5 4 10 -3 6
-2 10 2 10 5 0 9 8 10 18 1 26 10 59 22 81 6 11 8 27 4 37 -5 13 -3 15 7 9 10
-6 12 -3 8 13 -4 12 -2 22 4 22 5 0 6 5 3 10 -3 6 -2 10 4 10 5 0 8 9 6 20 -2
11 0 20 4 20 4 0 8 7 9 15 1 8 3 22 4 30 1 8 4 15 8 15 3 0 7 8 8 18 4 34 8
52 15 58 4 4 7 17 7 29 0 13 6 28 13 34 8 6 13 21 12 33 -1 13 2 25 6 28 4 3
10 19 13 35 2 17 5 31 5 33 1 1 1 5 2 10 0 4 5 13 11 20 6 6 7 12 3 12 -4 0
-3 6 2 13 5 6 9 19 8 27 0 8 6 20 15 27 12 10 12 12 1 13 -10 0 -11 3 -2 13 6
8 13 24 15 38 3 13 5 24 6 24 1 0 3 9 5 20 2 11 9 21 14 23 7 2 8 15 5 29 -5
18 -3 24 5 19 10 -6 12 6 11 49 0 3 6 18 14 34 9 16 12 31 9 35 -4 3 -1 6 6 6
7 0 10 4 7 9 -4 5 -1 22 5 38 12 31 20 62 21 81 1 6 5 12 9 12 5 0 6 7 3 15
-4 8 -2 15 3 15 5 0 10 6 11 13 1 13 6 34 14 57 9 26 37 125 39 135 1 11 18
45 22 45 2 0 4 -65 5 -145z"/>
</g>
</svg>
